<svg width="35" height="34" viewBox="0 0 35 34" fill="none" xmlns="http://www.w3.org/2000/svg">
<g id="edit">
<path id="Vector" d="M15.8333 5.66666H5.91665C5.1652 5.66666 4.44453 5.96518 3.91318 6.49653C3.38182 7.02788 3.08331 7.74855 3.08331 8.5V28.3333C3.08331 29.0848 3.38182 29.8054 3.91318 30.3368C4.44453 30.8682 5.1652 31.1667 5.91665 31.1667H25.75C26.5014 31.1667 27.2221 30.8682 27.7534 30.3368C28.2848 29.8054 28.5833 29.0848 28.5833 28.3333V18.4167" stroke="black" stroke-width="1.5" stroke-linecap="round" stroke-linejoin="round"/>
<path id="Vector_2" d="M26.4583 3.54166C27.0219 2.97808 27.7863 2.66146 28.5833 2.66146C29.3803 2.66146 30.1447 2.97808 30.7083 3.54166C31.2719 4.10525 31.5885 4.86964 31.5885 5.66666C31.5885 6.46369 31.2719 7.22808 30.7083 7.79166L17.25 21.25L11.5833 22.6667L13 17L26.4583 3.54166Z" stroke="black" stroke-width="1.5" stroke-linecap="round" stroke-linejoin="round"/>
</g>
</svg>
