<svg width="34" height="34" viewBox="0 0 34 34" fill="none" xmlns="http://www.w3.org/2000/svg">
<g id="trash">
<path id="Vector" d="M4.25 8.5H7.08333H29.75" stroke="#F32222" stroke-width="2" stroke-linecap="round" stroke-linejoin="round"/>
<path id="Vector_2" d="M26.9166 8.5V28.3333C26.9166 29.0848 26.6181 29.8055 26.0868 30.3368C25.5554 30.8682 24.8348 31.1667 24.0833 31.1667H9.91665C9.1652 31.1667 8.44453 30.8682 7.91318 30.3368C7.38182 29.8055 7.08331 29.0848 7.08331 28.3333V8.5M11.3333 8.5V5.66667C11.3333 4.91522 11.6318 4.19455 12.1632 3.6632C12.6945 3.13185 13.4152 2.83334 14.1666 2.83334H19.8333C20.5848 2.83334 21.3054 3.13185 21.8368 3.6632C22.3681 4.19455 22.6666 4.91522 22.6666 5.66667V8.5" stroke="#F32222" stroke-width="2" stroke-linecap="round" stroke-linejoin="round"/>
</g>
</svg>
